
<svg width="32px" height="29px" viewBox="0 0 32 29" version="1.1" xmlns="http://www.w3.org/2000/svg" xmlns:xlink="http://www.w3.org/1999/xlink">
    <g id="Page-1" stroke="none" stroke-width="1" fill="none" fill-rule="evenodd">
        <g id="icon_06" fill="#FFFFFF" fill-rule="nonzero">
            <path d="M20.6,26.5 L17.2,26.5 L17.2,23.5 L14.8,23.5 L14.8,26.5 L11.4,26.5 C10.7,26.5 10.2,27.1 10.2,27.7 C10.2,28.4 10.7,28.9 11.4,28.9 L20.6,28.9 C21.3,28.9 21.8,28.3 21.8,27.7 C21.8,27.1 21.3,26.5 20.6,26.5 Z M0,19.5 L0,21 C0,21.5 0.4,22 1,22 L31,22 C31.5,22 32,21.6 32,21 L32,19.5 L0,19.5 Z M16,4.2 C18.6,4.2 21,4.9 23.1,6.2 L23.9,5.1 C24.2,4.7 24.7,4.7 25,4.9 C25.4,5.2 25.4,5.7 25.2,6 L24.4,7.1 C27.6,9.6 29.6,13.4 29.7,17.8 L32,17.8 L32,1 C32,0.5 31.6,0 31,0 L1,0 C0.4,0 0,0.4 0,1 L0,17.9 L2.3,17.9 C2.4,10.3 8.5,4.2 16,4.2 Z M23,17.3 C22.9,17.2 22.9,17.1 22.9,17 C22.6,15.2 21.7,13.7 20.4,12.7 L18,16 C18.4,16.3 18.7,16.8 18.9,17.3 L23,17.3 Z M16,15.3 C16.2,15.3 16.3,15.3 16.5,15.3 L19.1,11.8 C18.2,11.3 17.1,11.1 16,11.1 C14,11.1 12.2,11.9 10.9,13.3 C10.9,13.3 10.9,13.3 10.9,13.3 C10.9,13.4 10.8,13.4 10.8,13.5 C10,14.5 9.4,15.7 9.2,17 C9.2,17.1 9.1,17.2 9.1,17.3 L13.2,17.3 C13.5,16.1 14.7,15.3 16,15.3 Z M28.1,17.3 C27.9,13.7 26.1,10.6 23.5,8.5 L21.4,11.4 C21.5,11.5 21.5,11.5 21.6,11.6 C23.1,12.9 24.2,14.8 24.5,16.8 C24.5,17 24.5,17.2 24.4,17.4 L28.1,17.4 L28.1,17.3 Z M6.2,10.9 C6.2,10.9 6.2,10.9 6.2,10.9 C4.9,12.7 4,14.9 3.9,17.3 L7.6,17.3 C7.5,17.1 7.4,16.9 7.5,16.7 C7.7,15.4 8.3,14.1 9.1,13 L6.2,10.9 Z M10.4,11.5 C11.8,10.3 13.4,9.6 15.2,9.5 L15.2,5.9 C12.1,6.1 9.3,7.5 7.3,9.6 L10.2,11.7 C10.2,11.7 10.3,11.6 10.4,11.5 Z M22.1,7.6 C20.5,6.7 18.7,6.1 16.8,6 L16.8,9.6 C17.9,9.7 19,10 20,10.6 L22.1,7.6 Z" id="Shape"></path>
        </g>
    </g>
</svg>