
<svg width="40px" height="27px" viewBox="0 0 40 27" version="1.1" xmlns="http://www.w3.org/2000/svg" xmlns:xlink="http://www.w3.org/1999/xlink">
    <g id="Page-1" stroke="none" stroke-width="1" fill="none" fill-rule="evenodd">
        <g id="icon_04" fill="#FFFFFF">
            <path d="M40,1.3 L39.7,3.8 C39.6,4.6 39.5,5.4 39.3,6.2 L39.2,6.7 C38.8,9 38.5,10.9 38.1,12.6 C37.7,14.5 37.2,16.6 36.6,18.7 C36.2,19.9 35.9,20.9 35.5,21.8 C35.3,22.4 35,22.9 34.8,23.4 C34.5,23.9 34.2,24.4 33.7,25 C33.5,25.3 33.2,25.5 32.9,25.7 C32.7,25.9 32.3,26 31.8,26.1 C31.4,26.2 31,26.1 30.7,26 C30.4,25.9 30.1,25.7 29.8,25.5 C29.2,25 28.8,24.5 28.5,24.1 C28.1,23.6 27.8,23 27.6,22.6 C27,21.5 26.6,20.4 26.2,19.6 C25.8,18.6 25.4,17.5 25,16.6 C24.8,16 24.6,15.4 24.4,14.8 C23.9,13.4 23.4,12 22.9,10.7 C22.5,9.6 22.1,8.8 21.7,8.1 C21.7,8 21.6,7.9 21.5,7.8 C21.5,7.8 21.5,7.7 21.4,7.7 C21.4,7.7 21.4,7.6 21.3,7.6 C20.4,6.3 19.3,6.4 18.5,8.5 C18.3,8.9 18.2,9.3 18,9.8 L17.5,11 C17.1,12.1 16.8,13.1 16.4,14 C15.9,15.2 15.5,16 15,16.8 C14.5,17.5 13.9,18.5 13,19.2 C12.5,19.6 12.1,19.8 11.6,20 C11.1,20.2 10.6,20.2 10,20.1 C9.5,20 9.1,19.8 8.6,19.6 C8.2,19.4 7.8,19.1 7.5,18.7 C6.9,18.1 6.3,17.4 5.8,16.5 C5.3,15.8 4.9,15 4.5,14.2 C3.7,12.5 3,10.8 2.6,9.6 C1.5,6.5 0.7,3.7 0.2,1.6 C0,1.4 0,1.3 0,1.3 C0,1.1 0,1 0.1,1 C0.2,0.9 0.3,0.9 0.4,0.9 C0.4,0.9 0.5,0.9 0.5,0.9 C0.6,1 0.7,1 0.7,1.2 C1.5,3.3 2.3,5.7 3.7,8.6 C4.4,10.1 5.1,11.5 5.9,12.8 C6.3,13.5 6.8,14.2 7.2,14.8 C7.8,15.5 8.2,16 8.7,16.4 C9.3,16.9 9.8,17.1 10.3,17.2 C10.8,17.2 11.2,17 11.7,16.6 C12.2,16.1 12.7,15.4 13,14.8 C13.4,14.1 13.7,13.3 14.1,12.4 C14.4,11.6 14.7,10.7 15,9.7 L15.5,8.2 C15.7,7.7 15.9,7.2 16.1,6.7 C16.3,6 16.5,5.4 16.7,5 C16.7,5 16.7,5 16.7,5 C16.7,5 16.7,5 16.7,5 C16.7,5 16.7,5 16.7,5 C16.9,4.5 17.3,4 17.7,3.5 C17.9,3.2 18.2,3 18.5,2.8 C18.8,2.5 19.2,2.4 19.6,2.3 C20,2.2 20.4,2.2 20.8,2.3 C21.1,2.4 21.5,2.6 21.8,2.8 C22.4,3.3 22.8,3.8 23.1,4.2 C23.4,4.6 23.7,5.1 24,5.7 C24.6,6.8 25,7.8 25.4,8.7 C25.5,8.8 25.5,9 25.6,9.1 C26.2,10.5 26.7,11.9 27.2,13.3 L27.7,14.6 C28.4,16.4 29.1,18.4 30,20.1 C30.2,20.6 30.5,20.9 30.6,21.2 C31.7,22.9 32.4,21.4 32.6,21 C32.8,20.7 33,20.3 33.2,19.8 C33.5,19 33.9,18.2 34.2,17.1 C34.8,15.4 35.3,13.4 35.8,11.4 C36.3,9.5 36.7,7.6 37.1,5.7 L37.2,5.3 C37.4,4.5 37.6,3.7 37.7,2.9 L38.2,0.6 L38.2,0.4 C38.3,0.3 38.6,0 39.1,0 C39.6,0 40,0.4 40,0.9 C40,0.9 40,0.9 40,0.9 L40,1.3 Z" id="Path"></path>
        </g>
    </g>
</svg>