
<svg width="33px" height="37px" viewBox="0 0 33 37" version="1.1" xmlns="http://www.w3.org/2000/svg" xmlns:xlink="http://www.w3.org/1999/xlink">
    <g id="Page-1" stroke="none" stroke-width="1" fill="none" fill-rule="evenodd">
        <g id="icon_05" fill="#FFFFFF" fill-rule="nonzero">
            <path d="M30.5,15.5 L29.9,15.5 L29.9,24.9 L30.5,24.9 C31.4,24.9 32.1,24.2 32.1,23.3 L32.1,17 C32,16.2 31.3,15.5 30.5,15.5 Z M0,17.1 L0,23.2 C0,24.1 0.7,24.9 1.6,24.9 L2.2,24.9 L2.2,15.5 L1.6,15.5 C0.7,15.5 0,16.2 0,17.1 Z M28.4,16.8 C28.4,16.1 28.3,15.4 28.2,14.7 C28.2,14.5 28.1,14.2 28,14 L28,12.2 C28.1,5.5 22.7,0 16,0 C9.3,0 4,5.5 4,12.3 L4,13.5 C4,13.6 3.9,13.8 3.9,14 C3.7,14.9 3.5,15.9 3.5,16.8 L3.5,28.4 C3.5,28.9 3.9,29.2 4.3,29.2 L6.8,29.2 C7.6,33.6 11.5,37 16.1,37 C19.7,37 22.9,34.9 24.5,31.8 C27.2,31.6 29.4,29.3 29.4,26.5 L28.5,26.5 L28.5,16.8 L28.4,16.8 Z M22.9,29.4 L17,29.4 C16.3,29.4 15.8,30 15.8,30.6 C15.8,31.3 16.3,31.8 17,31.8 L21.6,31.8 C20.3,33.4 18.3,34.5 16.1,34.5 C12.2,34.5 9.1,31.3 9.1,27.3 L9.1,19.4 C10,18.8 11.6,17.7 12.7,16.2 C14.4,17.6 17.8,19.7 23.2,19.9 L23.2,27.2 C23.1,28 23,28.7 22.9,29.4 Z M17.8,5.9 L14.2,5.9 C11.5,5.9 9,6.9 7.2,8.6 C8.5,5 12,2.5 16,2.5 C20.1,2.5 23.7,5.2 25,8.9 C23.2,7.1 20.6,5.9 17.8,5.9 Z M13.6,21.8 L11.7,21.8 C11,21.8 10.5,22.4 10.5,23 C10.5,23.7 11,24.2 11.7,24.2 L13.6,24.2 C14.3,24.2 14.8,23.6 14.8,23 C14.8,22.4 14.2,21.8 13.6,21.8 Z M20.4,21.8 L18.5,21.8 C17.8,21.8 17.3,22.4 17.3,23 C17.3,23.7 17.8,24.2 18.5,24.2 L20.4,24.2 C21.1,24.2 21.6,23.6 21.6,23 C21.6,22.4 21,21.8 20.4,21.8 Z" id="Shape"></path>
        </g>
    </g>
</svg>