
<svg width="36px" height="38px" viewBox="0 0 36 38" version="1.1" xmlns="http://www.w3.org/2000/svg" xmlns:xlink="http://www.w3.org/1999/xlink">
    <g id="Page-1" stroke="none" stroke-width="1" fill="none" fill-rule="evenodd">
        <g id="icon_03" fill="#FFFFFF" fill-rule="nonzero">
            <path d="M35.9,17 C35.8,16.5 35.3,16.1 34.7,16.1 C33.1,16.1 31.6,15.1 31,13.6 C30.4,12.1 30.8,10.3 32,9.1 C32.4,8.7 32.4,8.2 32.1,7.7 C31.3,6.6 30.3,5.7 29.2,4.8 C28.8,4.5 28.2,4.5 27.8,4.9 C26.7,6.1 24.8,6.5 23.3,5.9 C21.8,5.2 20.8,3.7 20.9,2 C20.9,1.5 20.5,1 20,0.9 C18.7,0.7 17.3,0.7 16,0.9 C15.5,1 15.1,1.4 15.1,1.9 C15.2,3.6 14.2,5.1 12.6,5.7 C11.1,6.3 9.2,5.9 8.1,4.7 C7.9,4.6 7.3,4.5 6.9,4.9 C5.8,5.7 4.8,6.7 4,7.7 C3.7,8.1 3.7,8.7 4.1,9.1 C5.4,10.2 5.8,12 5.1,13.6 C4.5,15.1 2.9,16 1.2,16 C0.6,16 0.2,16.4 0.2,16.9 C-9.99200722e-16,18.3 -9.99200722e-16,19.6 0.1,21 C0.2,21.5 0.8,21.9 1.3,21.9 C2.9,21.9 4.4,22.8 5,24.4 C5.6,25.9 5.2,27.7 4,28.9 C3.6,29.3 3.6,29.8 3.9,30.3 C4.7,31.4 5.7,32.3 6.7,33.2 C7.1,33.5 7.7,33.5 8.1,33.1 C9.2,31.9 11.1,31.5 12.6,32.1 C14.2,32.7 15.1,34.3 15,36 C15,36.5 15.4,37 15.9,37.1 C16.6,37 17.3,37 18,37 C18.7,37 19.3,37 20,36.9 C20.5,36.8 20.9,36.4 20.9,35.9 C20.8,34.2 21.8,32.7 23.4,32.1 C24.9,31.5 26.8,31.9 27.9,33.1 C28.3,33.5 28.8,33.5 29.3,33.2 C30.4,32.4 31.4,31.4 32.2,30.3 C32.5,29.9 32.5,29.3 32.1,28.9 C30.8,27.8 30.4,26 31.1,24.4 C31.5,23 33,22 34.6,22 L34.8,22 C35.3,22 35.8,21.6 35.9,21.1 C36,19.7 36,18.4 35.9,17 Z M18,29.4 C12.3,29.4 7.6,24.8 7.6,19 C7.6,13.2 12.3,8.6 18,8.6 C23.7,8.6 28.4,13.3 28.4,19 C28.4,20.9 27.9,22.8 26.9,24.3 L22.4,19.8 C22.7,19 22.9,18.2 22.9,17.3 C22.9,15.6 22.2,14 21,12.8 C19.8,11.6 18.2,10.9 16.5,10.9 C15.9,10.9 15.4,11 14.8,11.1 C14.6,11.2 14.4,11.4 14.3,11.6 C14.2,11.8 14.3,12.1 14.5,12.3 C14.5,12.3 16.7,14.6 17.5,15.3 C17.6,15.4 17.6,15.6 17.6,15.6 C17.5,16.4 17.4,17.4 17.3,17.8 C17.3,17.8 17.3,17.8 17.3,17.8 C17.3,17.8 17.3,17.8 17.3,17.9 C16.9,18 15.9,18.2 15.1,18.2 C15.1,18.2 15.1,18.2 15.1,18.2 C15,18.2 14.9,18.2 14.8,18.1 C14,17.3 11.9,15.2 11.9,15.2 C11.7,15 11.5,15 11.4,15 C11.1,15 10.8,15.2 10.7,15.5 C10.1,17.7 10.7,20.1 12.3,21.7 C13.5,22.9 15.1,23.6 16.8,23.6 C17.7,23.6 18.5,23.4 19.3,23.1 L23.9,27.7 C22,28.8 20.1,29.4 18,29.4 Z" id="Shape"></path>
        </g>
    </g>
</svg>