
<svg width="35px" height="25px" viewBox="0 0 35 25" version="1.1" xmlns="http://www.w3.org/2000/svg" xmlns:xlink="http://www.w3.org/1999/xlink">
    <g id="Page-1" stroke="none" stroke-width="1" fill="none" fill-rule="evenodd">
        <g id="icon_01" fill="#FFFFFF" fill-rule="nonzero">
            <path d="M22.3,12.5 C25.8,12.5 28.7,9.7 28.7,6.2 C28.7,2.8 25.8,0 22.3,0 C18.8,0 15.9,2.8 15.9,6.2 C15.9,9.7 18.8,12.5 22.3,12.5 Z M8,9.4 L8,4.7 L4.8,4.7 L4.8,9.4 L0,9.4 L0,12.5 L4.8,12.5 L4.8,17.2 L8,17.2 L8,12.5 L12.8,12.5 L12.8,9.4 L8,9.4 Z M22.3,15.6 C18,15.6 9.6,17.6 9.6,21.8 L9.6,25 L35,25 L35,21.9 C35,17.7 26.6,15.6 22.3,15.6 Z" id="Shape"></path>
        </g>
    </g>
</svg>